<svg width="650" height="640" viewBox="0 0 650 640" fill="none" xmlns="http://www.w3.org/2000/svg">
<g>
<path d="M539.696 369.533L538.815 294.706L294.972 243.244L173.05 217.513L88.7596 260.939L88.9849 261.011L539.696 369.533Z" fill="#D2B620"/>
<path d="M805.727 823.172L811.306 744.279L212.386 867.643L258.951 943.435L805.727 823.172Z" fill="#D2B620"/>
<path d="M261.518 468.526L274.024 513.806L387.276 643.738L313.864 376.532L261.518 468.526Z" fill="#D2B620"/>
<path d="M538.815 294.705L313.865 376.533L261.519 468.526L539.696 369.533L538.815 294.705Z" fill="#E0C431"/>
<path d="M645.584 96.4743L644.831 96.0341L-18.0331 -235.628L-54.6803 -170.387L631.687 174.544L645.584 96.4743Z" fill="#D2B620"/>
<path d="M274.025 513.806L387.277 643.739L805.973 823.211L811.478 744.192L810.65 743.827L361.946 551.462L274.025 513.806Z" fill="#E0C431"/>
<path d="M645.585 96.4742L645.504 95.9513L644.832 96.0341L111.936 179.94L88.7606 260.938L88.7615 261.013L88.9859 261.011L631.688 174.544L645.585 96.4742Z" fill="#E0C431"/>
</g>
</svg>
